<svg xmlns="http://www.w3.org/2000/svg" xmlns:xlink="http://www.w3.org/1999/xlink" width="1080" zoomAndPan="magnify" viewBox="0 0 810 809.999993" height="1080" preserveAspectRatio="xMidYMid meet" version="1.0"><defs><g/><clipPath id="eb83382d68"><rect x="0" width="767" y="0" height="506"/></clipPath><clipPath id="dcaf102813"><rect x="0" width="254" y="0" height="207"/></clipPath></defs><rect x="-81" width="972" fill="#ffffff" y="-80.999999" height="971.999992" fill-opacity="1"/><rect x="-81" width="972" fill="#ffffff" y="-80.999999" height="971.999992" fill-opacity="1"/><g transform="matrix(1, 0, 0, 1, 24, 105)"><g clip-path="url(#eb83382d68)"><g fill="#000000" fill-opacity="1"><g transform="translate(0.492406, 399.964038)"><g><path d="M 34.421875 -290.3125 L 166.3125 -290.3125 C 197.832031 -290.3125 225.6875 -284.296875 249.875 -272.265625 C 274.070312 -260.242188 292.875 -243.3125 306.28125 -221.46875 C 319.6875 -199.625 326.390625 -174.1875 326.390625 -145.15625 C 326.390625 -116.125 319.6875 -90.6875 306.28125 -68.84375 C 292.875 -47 274.070312 -30.0625 249.875 -18.03125 C 225.6875 -6.007812 197.832031 0 166.3125 0 L 34.421875 0 Z M 162.984375 -55.15625 C 192.015625 -55.15625 215.171875 -63.242188 232.453125 -79.421875 C 249.734375 -95.597656 258.375 -117.507812 258.375 -145.15625 C 258.375 -172.800781 249.734375 -194.710938 232.453125 -210.890625 C 215.171875 -227.066406 192.015625 -235.15625 162.984375 -235.15625 L 101.609375 -235.15625 L 101.609375 -55.15625 Z M 162.984375 -55.15625 "/></g></g></g><g fill="#000000" fill-opacity="1"><g transform="translate(299.515211, 399.964038)"><g><path d="M 248.421875 -110.734375 C 248.421875 -109.898438 248.007812 -104.09375 247.1875 -93.3125 L 78.390625 -93.3125 C 81.429688 -79.488281 88.617188 -68.566406 99.953125 -60.546875 C 111.285156 -52.535156 125.382812 -48.53125 142.25 -48.53125 C 153.863281 -48.53125 164.160156 -50.253906 173.140625 -53.703125 C 182.128906 -57.160156 190.5 -62.625 198.25 -70.09375 L 232.671875 -32.765625 C 211.648438 -8.710938 180.957031 3.3125 140.59375 3.3125 C 115.4375 3.3125 93.179688 -1.59375 73.828125 -11.40625 C 54.472656 -21.21875 39.539062 -34.832031 29.03125 -52.25 C 18.519531 -69.675781 13.265625 -89.445312 13.265625 -111.5625 C 13.265625 -133.40625 18.445312 -153.101562 28.8125 -170.65625 C 39.1875 -188.21875 53.425781 -201.90625 71.53125 -211.71875 C 89.644531 -221.53125 109.898438 -226.4375 132.296875 -226.4375 C 154.140625 -226.4375 173.910156 -221.738281 191.609375 -212.34375 C 209.304688 -202.945312 223.195312 -189.46875 233.28125 -171.90625 C 243.375 -154.351562 248.421875 -133.960938 248.421875 -110.734375 Z M 132.71875 -177.5 C 118.0625 -177.5 105.753906 -173.351562 95.796875 -165.0625 C 85.847656 -156.769531 79.769531 -145.4375 77.5625 -131.0625 L 187.453125 -131.0625 C 185.242188 -145.15625 179.160156 -156.414062 169.203125 -164.84375 C 159.253906 -173.28125 147.09375 -177.5 132.71875 -177.5 Z M 132.71875 -177.5 "/></g></g></g><g fill="#000000" fill-opacity="1"><g transform="translate(513.517378, 399.964038)"><g><path d="M 251.328125 -223.125 L 157.1875 0 L 90.40625 0 L -3.3125 -223.125 L 63.453125 -223.125 L 125.25 -71.328125 L 189.125 -223.125 Z M 251.328125 -223.125 "/></g></g></g></g></g><g transform="matrix(1, 0, 0, 1, 502, 471)"><g clip-path="url(#dcaf102813)"><g fill="#f0b100" fill-opacity="1"><g transform="translate(0.217732, 163.354004)"><g><path d="M 66.734375 2.03125 C 49.796875 2.03125 36.613281 -2.648438 27.1875 -12.015625 C 17.757812 -21.390625 13.046875 -34.769531 13.046875 -52.15625 L 13.046875 -118.546875 L 40.484375 -118.546875 L 40.484375 -53.171875 C 40.484375 -31.953125 49.285156 -21.34375 66.890625 -21.34375 C 75.472656 -21.34375 82.019531 -23.910156 86.53125 -29.046875 C 91.050781 -34.179688 93.3125 -42.222656 93.3125 -53.171875 L 93.3125 -118.546875 L 120.421875 -118.546875 L 120.421875 -52.15625 C 120.421875 -34.769531 115.703125 -21.390625 106.265625 -12.015625 C 96.835938 -2.648438 83.660156 2.03125 66.734375 2.03125 Z M 66.734375 2.03125 "/></g></g></g><g fill="#f0b100" fill-opacity="1"><g transform="translate(115.886706, 163.354004)"><g><path d="M 66.046875 -92.46875 C 74.515625 -92.46875 82.21875 -90.519531 89.15625 -86.625 C 96.101562 -82.726562 101.550781 -77.25 105.5 -70.1875 C 109.457031 -63.132812 111.4375 -54.925781 111.4375 -45.5625 C 111.4375 -36.1875 109.457031 -27.96875 105.5 -20.90625 C 101.550781 -13.851562 96.101562 -8.378906 89.15625 -4.484375 C 82.21875 -0.585938 74.515625 1.359375 66.046875 1.359375 C 54.421875 1.359375 45.273438 -2.3125 38.609375 -9.65625 L 38.609375 32.859375 L 12.1875 32.859375 L 12.1875 -91.109375 L 37.421875 -91.109375 L 37.421875 -80.609375 C 43.972656 -88.515625 53.515625 -92.46875 66.046875 -92.46875 Z M 61.484375 -20.328125 C 68.253906 -20.328125 73.8125 -22.613281 78.15625 -27.1875 C 82.507812 -31.757812 84.6875 -37.882812 84.6875 -45.5625 C 84.6875 -53.238281 82.507812 -59.363281 78.15625 -63.9375 C 73.8125 -68.507812 68.253906 -70.796875 61.484375 -70.796875 C 54.703125 -70.796875 49.140625 -68.507812 44.796875 -63.9375 C 40.453125 -59.363281 38.28125 -53.238281 38.28125 -45.5625 C 38.28125 -37.882812 40.453125 -31.757812 44.796875 -27.1875 C 49.140625 -22.613281 54.703125 -20.328125 61.484375 -20.328125 Z M 61.484375 -20.328125 "/></g></g></g><g fill="#f0b100" fill-opacity="1"><g transform="translate(213.773433, 163.354004)"><g><path d="M 22.1875 1.359375 C 17.5625 1.359375 13.664062 -0.21875 10.5 -3.375 C 7.34375 -6.539062 5.765625 -10.5 5.765625 -15.25 C 5.765625 -20.101562 7.34375 -24.023438 10.5 -27.015625 C 13.664062 -30.003906 17.5625 -31.5 22.1875 -31.5 C 26.8125 -31.5 30.703125 -30.003906 33.859375 -27.015625 C 37.023438 -24.023438 38.609375 -20.101562 38.609375 -15.25 C 38.609375 -10.5 37.023438 -6.539062 33.859375 -3.375 C 30.703125 -0.21875 26.8125 1.359375 22.1875 1.359375 Z M 22.1875 1.359375 "/></g></g></g></g></g></svg>