<svg xmlns="http://www.w3.org/2000/svg" xmlns:xlink="http://www.w3.org/1999/xlink" width="1080" zoomAndPan="magnify" viewBox="0 0 810 809.999993" height="1080" preserveAspectRatio="xMidYMid meet" version="1.0"><defs><g/><clipPath id="0bff22e66d"><rect x="0" width="619" y="0" height="503"/></clipPath><clipPath id="3d5fa0d0a0"><rect x="0" width="763" y="0" height="503"/></clipPath></defs><g transform="matrix(1, 0, 0, 1, 29, 11)"><g clip-path="url(#0bff22e66d)"><g fill="#f0b100" fill-opacity="1"><g transform="translate(0.28161, 397.754197)"><g><path d="M 162.484375 4.953125 C 121.242188 4.953125 89.144531 -6.457031 66.1875 -29.28125 C 43.226562 -52.101562 31.75 -84.679688 31.75 -127.015625 L 31.75 -288.6875 L 98.5625 -288.6875 L 98.5625 -129.5 C 98.5625 -77.8125 120.007812 -51.96875 162.90625 -51.96875 C 183.800781 -51.96875 199.742188 -58.21875 210.734375 -70.71875 C 221.734375 -83.226562 227.234375 -102.820312 227.234375 -129.5 L 227.234375 -288.6875 L 293.21875 -288.6875 L 293.21875 -127.015625 C 293.21875 -84.679688 281.738281 -52.101562 258.78125 -29.28125 C 235.820312 -6.457031 203.722656 4.953125 162.484375 4.953125 Z M 162.484375 4.953125 "/></g></g></g><g fill="#f0b100" fill-opacity="1"><g transform="translate(281.953241, 397.754197)"><g><path d="M 160.84375 -225.171875 C 181.457031 -225.171875 200.21875 -220.425781 217.125 -210.9375 C 234.039062 -201.457031 247.304688 -188.125 256.921875 -170.9375 C 266.546875 -153.757812 271.359375 -133.757812 271.359375 -110.9375 C 271.359375 -88.113281 266.546875 -68.109375 256.921875 -50.921875 C 247.304688 -33.742188 234.039062 -20.410156 217.125 -10.921875 C 200.21875 -1.441406 181.457031 3.296875 160.84375 3.296875 C 132.519531 3.296875 110.25 -5.632812 94.03125 -23.5 L 94.03125 80 L 29.6875 80 L 29.6875 -221.875 L 91.140625 -221.875 L 91.140625 -196.3125 C 107.085938 -215.550781 130.320312 -225.171875 160.84375 -225.171875 Z M 149.703125 -49.484375 C 166.203125 -49.484375 179.742188 -55.050781 190.328125 -66.1875 C 200.910156 -77.320312 206.203125 -92.238281 206.203125 -110.9375 C 206.203125 -129.632812 200.910156 -144.550781 190.328125 -155.6875 C 179.742188 -166.820312 166.203125 -172.390625 149.703125 -172.390625 C 133.203125 -172.390625 119.660156 -166.820312 109.078125 -155.6875 C 98.492188 -144.550781 93.203125 -129.632812 93.203125 -110.9375 C 93.203125 -92.238281 98.492188 -77.320312 109.078125 -66.1875 C 119.660156 -55.050781 133.203125 -49.484375 149.703125 -49.484375 Z M 149.703125 -49.484375 "/></g></g></g><g fill="#f0b100" fill-opacity="1"><g transform="translate(520.322382, 397.754197)"><g><path d="M 54.03125 3.296875 C 42.75 3.296875 33.257812 -0.550781 25.5625 -8.25 C 17.863281 -15.945312 14.015625 -25.566406 14.015625 -37.109375 C 14.015625 -48.929688 17.863281 -58.484375 25.5625 -65.765625 C 33.257812 -73.054688 42.75 -76.703125 54.03125 -76.703125 C 65.300781 -76.703125 74.785156 -73.054688 82.484375 -65.765625 C 90.179688 -58.484375 94.03125 -48.929688 94.03125 -37.109375 C 94.03125 -25.566406 90.179688 -15.945312 82.484375 -8.25 C 74.785156 -0.550781 65.300781 3.296875 54.03125 3.296875 Z M 54.03125 3.296875 "/></g></g></g></g></g><g transform="matrix(1, 0, 0, 1, 26, 256)"><g clip-path="url(#3d5fa0d0a0)"><g fill="#000000" fill-opacity="1"><g transform="translate(0.62999, 398.159025)"><g><path d="M 34.234375 -288.6875 L 165.375 -288.6875 C 196.71875 -288.6875 224.414062 -282.707031 248.46875 -270.75 C 272.53125 -258.789062 291.226562 -241.945312 304.5625 -220.21875 C 317.894531 -198.5 324.5625 -173.207031 324.5625 -144.34375 C 324.5625 -115.476562 317.894531 -90.179688 304.5625 -68.453125 C 291.226562 -46.734375 272.53125 -29.894531 248.46875 -17.9375 C 224.414062 -5.976562 196.71875 0 165.375 0 L 34.234375 0 Z M 162.078125 -54.84375 C 190.941406 -54.84375 213.960938 -62.882812 231.140625 -78.96875 C 248.328125 -95.050781 256.921875 -116.84375 256.921875 -144.34375 C 256.921875 -171.832031 248.328125 -193.617188 231.140625 -209.703125 C 213.960938 -225.785156 190.941406 -233.828125 162.078125 -233.828125 L 101.046875 -233.828125 L 101.046875 -54.84375 Z M 162.078125 -54.84375 "/></g></g></g><g fill="#000000" fill-opacity="1"><g transform="translate(297.972967, 398.159025)"><g><path d="M 247.03125 -110.109375 C 247.03125 -109.285156 246.617188 -103.515625 245.796875 -92.796875 L 77.9375 -92.796875 C 80.96875 -79.046875 88.117188 -68.179688 99.390625 -60.203125 C 110.660156 -52.234375 124.679688 -48.25 141.453125 -48.25 C 153.003906 -48.25 163.242188 -49.96875 172.171875 -53.40625 C 181.109375 -56.84375 189.425781 -62.273438 197.125 -69.703125 L 231.359375 -32.578125 C 210.460938 -8.660156 179.945312 3.296875 139.8125 3.296875 C 114.789062 3.296875 92.65625 -1.582031 73.40625 -11.34375 C 54.164062 -21.101562 39.320312 -34.640625 28.875 -51.953125 C 18.425781 -69.273438 13.203125 -88.9375 13.203125 -110.9375 C 13.203125 -132.65625 18.351562 -152.242188 28.65625 -169.703125 C 38.96875 -187.160156 53.128906 -200.769531 71.140625 -210.53125 C 89.148438 -220.289062 109.289062 -225.171875 131.5625 -225.171875 C 153.28125 -225.171875 172.9375 -220.492188 190.53125 -211.140625 C 208.125 -201.796875 221.9375 -188.394531 231.96875 -170.9375 C 242.007812 -153.476562 247.03125 -133.203125 247.03125 -110.109375 Z M 131.96875 -176.515625 C 117.394531 -176.515625 105.160156 -172.390625 95.265625 -164.140625 C 85.367188 -155.890625 79.320312 -144.617188 77.125 -130.328125 L 186.40625 -130.328125 C 184.207031 -144.347656 178.160156 -155.550781 168.265625 -163.9375 C 158.367188 -172.320312 146.269531 -176.515625 131.96875 -176.515625 Z M 131.96875 -176.515625 "/></g></g></g><g fill="#000000" fill-opacity="1"><g transform="translate(510.772929, 398.159025)"><g><path d="M 249.921875 -221.875 L 156.296875 0 L 89.90625 0 L -3.296875 -221.875 L 63.09375 -221.875 L 124.546875 -70.9375 L 188.0625 -221.875 Z M 249.921875 -221.875 "/></g></g></g></g></g></svg>